<svg xmlns="http://www.w3.org/2000/svg" width="113.8mm" height="9.96mm" viewBox="0 0 322.59 28.23"><defs><style>.cls-1{fill:#fff;}</style></defs><title>アセット 2</title><g id="レイヤー_2" data-name="レイヤー 2"><g id="レイヤー_1-2" data-name="レイヤー 1"><polygon class="cls-1" points="119.96 6.78 119.96 4.82 129.7 4.82 129.7 2.56 119.96 2.56 119.96 0 117.7 0 117.7 6.78 112.55 6.78 112.55 0.94 110.29 0.94 110.29 6.78 104.48 6.78 104.48 9.04 133.18 9.04 133.18 6.78 119.96 6.78"/><polygon class="cls-1" points="132.43 28.23 105.23 28.23 105.23 11.69 107.49 11.69 107.49 25.96 130.16 25.96 130.16 11.69 132.43 11.69 132.43 28.23"/><path class="cls-1" d="M127.24,21.46a30.19,30.19,0,0,1-4.6-3h4.1V16.22H120V11.69H117.7v4.53h-6.79v2.27H115a30.7,30.7,0,0,1-4.6,3l1.06,2a30.37,30.37,0,0,0,6.22-4.31v4.49H120V19.15a30,30,0,0,0,6.21,4.31Z"/><rect class="cls-1" x="112.48" y="11.51" width="2.26" height="3.81" transform="translate(23.78 84.26) rotate(-45)"/><rect class="cls-1" x="122.14" y="12.29" width="3.81" height="2.26" transform="translate(26.82 91.62) rotate(-44.98)"/><path class="cls-1" d="M156.34,16a43,43,0,0,1-4.12-5.08h3.33V8.64h-4.26V3.25l4.41-.6L155.4.41,143.6,2l.3,2.24L149,3.55V8.64h-5.28v2.27h4.77a52.51,52.51,0,0,1-5.69,10.25l1.83,1.34A52.92,52.92,0,0,0,149,15.22v12.7h2.26V13.48a39.51,39.51,0,0,0,3.47,4.12Z"/><polygon class="cls-1" points="173.54 21.14 173.3 18.89 169.55 19.3 169.55 0.94 167.29 0.94 167.29 19.54 156.37 20.71 156.61 22.95 167.29 21.81 167.29 27.92 169.55 27.92 169.55 21.57 173.54 21.14"/><rect class="cls-1" x="160.89" y="3.15" width="2.26" height="5.24" transform="translate(58.39 130.45) rotate(-52.31)"/><rect class="cls-1" x="160.89" y="10.81" width="2.26" height="5.24" transform="translate(52.33 133.43) rotate(-52.31)"/><rect class="cls-1" x="213.13" y="3.12" width="2.26" height="15.53"/><path class="cls-1" d="M214.26,28.23V26c10.13,0,15.71-3.2,15.71-9V3.12h2.26V16.93C232.23,20.33,230.48,28.23,214.26,28.23Z"/><path class="cls-1" d="M185.3,28.21,184.88,26c11.24-2.11,15.35-7.43,15.88-20.91H187.39a30.4,30.4,0,0,1-4.81,7.32l-1.65-1.54a28.63,28.63,0,0,0,4.7-7.36l.29-.68h17.16l0,1.16C202.69,19.47,198,25.81,185.3,28.21Z"/><path class="cls-1" d="M304.8,28.21,304.38,26c11.25-2.11,15.36-7.43,15.88-20.91H306.9a30.4,30.4,0,0,1-4.81,7.32l-1.66-1.54a28.26,28.26,0,0,0,4.7-7.36l.3-.68h17.16l0,1.16C322.19,19.47,317.55,25.81,304.8,28.21Z"/><rect class="cls-1" x="243.47" y="3.75" width="17.3" height="2.26"/><rect class="cls-1" x="241.36" y="25.02" width="21.52" height="2.26"/><path class="cls-1" d="M273.42,28.23V26c4.76,0,15.82-1,15.82-10V8.13h2.26V16C291.5,23.66,284.75,28.23,273.42,28.23Z"/><rect class="cls-1" x="272.29" y="8.13" width="2.26" height="8.84"/><rect class="cls-1" x="278.72" y="8.13" width="2.26" height="8.84"/><path class="cls-1" d="M18.54,4.56a13.2,13.2,0,0,0-1.47-.28V.94H14.81V4.19c-4,.17-8.6,2.11-12.5,7.11.11-3.64.37-7,.62-9.29L.69,1.76C.53,3.15-.78,15.62.7,24.2l2.22-.38a55.54,55.54,0,0,1-.64-8.41C6,9,10.84,6.66,14.81,6.45V19.29a5.49,5.49,0,0,1-.58,2.65A7.36,7.36,0,0,1,8,17l-2.16.69a9.44,9.44,0,0,0,6.56,6.17,24.31,24.31,0,0,1-4.52,2.23l.86,2.09c2.43-1,4.91-2,6.51-3.84l.57,0a11,11,0,0,0,1.82-.14c5.24-.82,8.62-4.62,8.62-9.68A10.1,10.1,0,0,0,18.54,4.56ZM17.33,22l-.69.08a8.21,8.21,0,0,0,.43-2.74V6.56a8.24,8.24,0,0,1,.89.19A7.79,7.79,0,0,1,24,14.5C24,19.22,20.58,21.44,17.33,22Z"/><rect class="cls-1" x="47.77" y="12.36" width="10.04" height="2.26"/><path class="cls-1" d="M59.21,27.28H51.52c-1.66,0-4-.19-5.45-1.83C45,24.21,44.65,22.42,45,20l2.23.32C47,22,47.17,23.26,47.78,24S49.59,25,51.52,25h7.69Z"/><path class="cls-1" d="M51.52,5.53h-10c.1-1.45.18-2.95.23-4.55L39.46.9c-.06,1.63-.14,3.16-.24,4.63H34.47V7.8H39a64.78,64.78,0,0,1-4.4,18.88l2.11.83A67.24,67.24,0,0,0,41.31,7.8H51.52Z"/><path class="cls-1" d="M81.87,5.53H75.75c.1-1.45.17-2.95.23-4.55L73.72.9c-.06,1.63-.14,3.16-.24,4.63H67.74V7.8H73.3a64.78,64.78,0,0,1-4.4,18.88l2.11.83A67.55,67.55,0,0,0,75.57,7.8h6.3c3.07,0,3.43,1.75,3.43,3.07V22.42c0,2.35-.93,3.54-6,3.54v2.27c2.68,0,8.26,0,8.26-5.81V10.87C87.56,7.53,85.43,5.53,81.87,5.53Z"/><path class="cls-1" d="M95.27,16.67H93A30.05,30.05,0,0,0,90,3.24l2-1.06A32.67,32.67,0,0,1,95.27,16.67Z"/></g></g></svg>